<svg width="161" height="38" viewBox="0 0 161 38" fill="none" xmlns="http://www.w3.org/2000/svg">
<rect width="161" height="38" rx="15" fill="#DABE93" style="fill:#DABE93;fill:color(display-p3 0.8549 0.7451 0.5765);fill-opacity:1;"/>
<path d="M14.4714 11.7363C13.9703 11.4316 13.3406 11.4216 12.8294 11.7061C12.3182 11.9907 12 12.5263 12 13.1088V24.8924C12 25.4749 12.3182 26.0105 12.8294 26.2951C13.3406 26.5796 13.9703 26.5662 14.4714 26.2649L24.2214 20.3731C24.7055 20.0819 25 19.563 25 19.0006C25 18.4382 24.7055 17.9227 24.2214 17.6281L14.4714 11.7363Z" fill="#684816" style="fill:#684816;fill:color(display-p3 0.4078 0.2824 0.0863);fill-opacity:1;"/>
<path d="M50.9968 7.325H53.0718V29.975H50.9968V7.325ZM41.1468 9.075C42.2634 9.075 43.2468 9.4 44.0968 10.05C44.9634 10.6833 45.6384 11.5917 46.1218 12.775C46.6218 13.9583 46.8718 15.35 46.8718 16.95C46.8718 18.55 46.6218 19.9417 46.1218 21.125C45.6384 22.3083 44.9634 23.225 44.0968 23.875C43.2468 24.525 42.2634 24.85 41.1468 24.85C40.0301 24.85 39.0384 24.525 38.1718 23.875C37.3051 23.225 36.6218 22.3083 36.1218 21.125C35.6384 19.9417 35.3968 18.55 35.3968 16.95C35.3968 15.35 35.6384 13.9583 36.1218 12.775C36.6218 11.5917 37.3051 10.6833 38.1718 10.05C39.0384 9.4 40.0301 9.075 41.1468 9.075ZM41.1468 10.925C40.3968 10.925 39.7384 11.175 39.1718 11.675C38.6218 12.1583 38.1884 12.8583 37.8718 13.775C37.5551 14.675 37.3968 15.7333 37.3968 16.95C37.3968 18.1667 37.5551 19.2333 37.8718 20.15C38.1884 21.05 38.6218 21.75 39.1718 22.25C39.7384 22.75 40.3968 23 41.1468 23C41.8801 23 42.5218 22.75 43.0718 22.25C43.6384 21.75 44.0801 21.05 44.3968 20.15C44.7134 19.2333 44.8718 18.1667 44.8718 16.95C44.8718 15.7333 44.7134 14.675 44.3968 13.775C44.0801 12.8583 43.6384 12.1583 43.0718 11.675C42.5218 11.175 41.8801 10.925 41.1468 10.925ZM57.2698 18.55H58.8698C60.3532 18.55 61.6198 18.5417 62.6698 18.525C63.7365 18.4917 64.7032 18.4333 65.5698 18.35C66.4532 18.2667 67.3448 18.1417 68.2448 17.975L68.4448 19.675C67.7615 19.7917 67.0865 19.8917 66.4198 19.975C65.7532 20.0417 65.0532 20.0917 64.3198 20.125C63.5865 20.1583 62.7782 20.1833 61.8948 20.2C61.0115 20.2167 60.0032 20.225 58.8698 20.225H57.2698V18.55ZM57.2198 8.7H66.9448V15.1H59.3198V19.55H57.2698V13.5H64.8948V10.375H57.2198V8.7ZM72.8448 7.35H74.9198V21.25H72.8448V7.35ZM68.4448 10.7H73.3198V12.375H68.4448V10.7ZM68.4448 15.375H73.3198V17.075H68.4448V15.375ZM59.7948 22.45H74.9198V29.975H72.8448V24.15H59.7948V22.45ZM89.3679 15H95.6429V16.7H89.3679V15ZM83.8929 9.275H85.5929V13.325C85.5929 14.575 85.4345 15.8083 85.1179 17.025C84.8179 18.2417 84.3845 19.375 83.8179 20.425C83.2512 21.475 82.5845 22.4083 81.8179 23.225C81.0679 24.0417 80.2429 24.6917 79.3429 25.175L78.0429 23.5C78.8762 23.1 79.6429 22.5417 80.3429 21.825C81.0595 21.1083 81.6845 20.2917 82.2179 19.375C82.7512 18.4417 83.1595 17.4667 83.4429 16.45C83.7429 15.4167 83.8929 14.375 83.8929 13.325V9.275ZM84.3179 9.275H85.9929V13.325C85.9929 14.3417 86.1345 15.35 86.4179 16.35C86.7179 17.35 87.1345 18.2917 87.6679 19.175C88.2012 20.0417 88.8179 20.8167 89.5179 21.5C90.2345 22.1833 91.0012 22.7167 91.8179 23.1L90.5679 24.775C89.6679 24.3083 88.8345 23.6833 88.0679 22.9C87.3012 22.1167 86.6345 21.2167 86.0679 20.2C85.5179 19.1833 85.0845 18.0917 84.7679 16.925C84.4679 15.7583 84.3179 14.5583 84.3179 13.325V9.275ZM94.6179 7.325H96.6679V29.975H94.6179V7.325ZM105.182 25.35H125.682V27.075H105.182V25.35ZM114.357 19.925H116.407V25.85H114.357V19.925ZM107.582 8.925H109.657V12.95H121.157V8.925H123.207V20.5H107.582V8.925ZM109.657 14.65V18.8H121.157V14.65H109.657ZM143.405 7.325H145.48V29.95H143.405V7.325ZM136.78 9.775H138.83C138.83 11.4083 138.63 12.9833 138.23 14.5C137.847 16.0167 137.239 17.4583 136.405 18.825C135.572 20.175 134.489 21.4333 133.155 22.6C131.822 23.7667 130.205 24.8083 128.305 25.725L127.205 24.05C129.389 23 131.189 21.775 132.605 20.375C134.022 18.975 135.072 17.4167 135.755 15.7C136.439 13.9667 136.78 12.1 136.78 10.1V9.775ZM128.255 9.775H137.655V11.45H128.255V9.775Z" fill="#684816" style="fill:#684816;fill:color(display-p3 0.4087 0.2823 0.0864);fill-opacity:1;"/>
</svg>
